<svg width="172" height="44" viewBox="0 0 172 44" fill="none" xmlns="http://www.w3.org/2000/svg">
<path fill-rule="evenodd" clip-rule="evenodd" d="M10.5247 0.0559629C10.4756 0.0860925 10.3999 0.295359 10.3565 0.520958C10.2807 0.914805 9.95315 1.96285 9.80878 2.27354C8.9625 4.09504 8.05277 5.2827 6.62931 6.42411C5.21002 7.56218 3.08116 8.46315 0.865184 8.86356L0.168847 8.98938L0.117628 9.32312C0.000952847 10.0833 -0.0398989 12.9959 0.0455184 14.4671C0.129543 15.9149 0.517867 19.0923 0.669823 19.5757C0.708509 19.6987 0.796402 20.0975 0.865107 20.4618C1.16004 22.0253 1.98335 24.7752 2.64293 26.3996C3.0547 27.4138 4.14702 29.6438 4.70463 30.6088C5.68206 32.3 7.28193 34.4944 8.53046 35.8563C11.3903 38.9756 14.9768 41.6409 18.7678 43.4645C19.3802 43.759 19.9436 44 20.0199 44C20.1684 44 21.8423 43.1946 22.7998 42.6624C23.9631 42.0157 25.3676 41.135 26.1654 40.5517C26.208 40.5206 26.5039 40.3054 26.8231 40.0735C28.2037 39.0705 30.3784 37.1139 31.3144 36.0327C31.5039 35.8139 31.7413 35.5478 31.8422 35.441C32.1006 35.1679 33.0849 33.9602 33.343 33.5996C33.4618 33.4337 33.7539 33.0128 33.9924 32.6641C34.2308 32.3155 34.4843 31.9463 34.5558 31.8438C34.6738 31.6745 34.9015 31.2983 35.391 30.4641C35.6862 29.961 36.7156 27.9388 36.8356 27.6264C36.8978 27.4644 37.0578 27.0801 37.1911 26.7725C39.1875 22.1648 40.2037 16.283 39.966 10.7101C39.9281 9.82085 39.8642 9.1099 39.8174 9.0556C39.7724 9.00325 39.485 8.92069 39.1788 8.87222C38.483 8.76206 37.0161 8.34838 36.301 8.06073C33.6297 6.98599 31.7206 5.29754 30.5414 2.96667C30.1389 2.17107 29.7473 1.09804 29.6481 0.519093C29.6166 0.335556 29.5558 0.143443 29.5128 0.0921333C29.4511 0.0184502 27.4605 -0.000865577 20.0244 2.93605e-05C14.8486 0.000700564 10.5737 0.0258334 10.5247 0.0559629ZM28.6448 1.67751C28.8482 2.35178 29.2686 3.28355 29.7728 4.17737C30.4679 5.40925 32.0771 7.0933 33.3334 7.90345C34.6553 8.75587 36.8858 9.67848 38.2097 9.92034L38.6484 10.0004L38.7035 10.5674C38.784 11.396 38.6927 14.7616 38.5517 16.1574C38.3518 18.1378 38.0151 20.0027 37.4905 22.0367C36.8263 24.6116 35.4317 28.019 34.2207 30.026C32.6227 32.6744 31.1121 34.5928 29.1484 36.4676C27.7959 37.7589 27.1404 38.3185 26.0881 39.0808C24.2003 40.448 22.7445 41.3331 20.788 42.303L20.0021 42.6926L19.1063 42.2463C18.6136 42.0008 18.0158 41.6875 17.7778 41.55C17.5399 41.4127 17.2755 41.2693 17.1904 41.2316C16.5227 40.9357 13.6751 38.9605 12.5482 38.0117C11.3872 37.0341 9.16003 34.8028 8.52791 33.984C8.39498 33.8118 8.13007 33.4696 7.93919 33.2235C6.74753 31.6872 5.5253 29.6846 4.70742 27.9284C4.44002 27.3542 4.17232 26.7836 4.11251 26.6606C3.65378 25.7161 2.54475 22.3857 2.33678 21.3283C2.30854 21.1847 2.21995 20.7987 2.13987 20.4706C1.58489 18.1966 1.16074 14.0491 1.23594 11.6331C1.25962 10.8743 1.30163 10.1975 1.32933 10.1292C1.36299 10.0461 1.57669 9.96337 1.97352 9.87984C2.50374 9.76812 3.47072 9.47272 4.11476 9.22557C4.73465 8.98766 6.2806 8.17782 6.79124 7.82357C8.82741 6.41084 10.3537 4.46607 11.1555 2.26273C11.3026 1.85852 11.4237 1.46899 11.4246 1.39725C11.4262 1.27375 11.8856 1.26674 19.9736 1.26674H28.5209L28.6448 1.67751Z" fill="#6B1F1B"/>
<path d="M28.6448 1.67751C28.8482 2.35178 29.2686 3.28355 29.7728 4.17737C30.4679 5.40925 32.0771 7.0933 33.3334 7.90345C34.6553 8.75587 36.8858 9.67848 38.2097 9.92034L38.6484 10.0004L38.7035 10.5674C38.784 11.396 38.6927 14.7616 38.5517 16.1574C38.3518 18.1378 38.0151 20.0027 37.4905 22.0367C36.8263 24.6116 35.4317 28.019 34.2207 30.026C32.6227 32.6744 31.1121 34.5928 29.1484 36.4676C27.7959 37.7589 27.1404 38.3185 26.0881 39.0808C24.2003 40.448 22.7445 41.3331 20.788 42.303L20.0021 42.6926L19.1063 42.2463C18.6136 42.0008 18.0158 41.6875 17.7778 41.55C17.5399 41.4127 17.2755 41.2693 17.1904 41.2316C16.5227 40.9357 13.6751 38.9605 12.5482 38.0117C11.3872 37.0341 9.16003 34.8028 8.52791 33.984C8.39498 33.8118 8.13007 33.4696 7.93919 33.2235C6.74753 31.6872 5.5253 29.6846 4.70742 27.9284C4.44002 27.3542 4.17232 26.7836 4.11251 26.6606C3.65378 25.7161 2.54475 22.3857 2.33678 21.3283C2.30854 21.1847 2.21995 20.7987 2.13987 20.4706C1.58489 18.1966 1.16074 14.0491 1.23594 11.6331C1.25962 10.8743 1.30163 10.1975 1.32933 10.1292C1.36299 10.0461 1.57669 9.96337 1.97352 9.87984C2.50374 9.76812 3.47072 9.47272 4.11476 9.22557C4.73465 8.98766 6.2806 8.17782 6.79124 7.82357C8.82741 6.41084 10.3537 4.46607 11.1555 2.26273C11.3026 1.85852 11.4237 1.46899 11.4246 1.39725C11.4262 1.27375 11.8856 1.26674 19.9736 1.26674H28.5209L28.6448 1.67751Z" fill="#6B1F1B"/>
<path d="M12.8665 8.46596C12.4836 7.96166 12.164 6.89599 12.3458 6.72987C12.3761 6.70229 13.2164 6.6885 14.2132 6.69936L16.0256 6.71902L16.1332 7.12108C16.3508 7.93438 17.0157 8.51914 18.1139 8.86326C18.6621 9.03503 18.8861 9.06459 19.6399 9.06459C20.3961 9.06459 20.6175 9.03518 21.176 8.86062C22.0736 8.58008 22.6921 8.07519 22.9578 7.40609C23.0598 7.14917 23.1721 6.88954 23.2075 6.82903C23.2617 6.73625 23.5537 6.71902 25.0702 6.71902H26.8686L26.852 7.15174C26.8126 8.17751 25.6466 9.50428 24.1779 10.1944C22.936 10.7781 21.7684 11.0115 19.8407 11.0617C18.8352 11.0879 18.4079 11.0652 17.6192 10.9439C15.3202 10.5903 13.9286 9.86483 12.8665 8.46596Z" fill="#F8F8F8"/>
<path d="M27.6729 14.7867C27.6094 14.3183 27.731 14.1574 28.2024 14.0856C28.5582 14.0314 32.2577 14.0704 32.589 14.1319C32.6871 14.1502 32.8108 14.2389 32.8639 14.3292C33.0907 14.715 33.027 16.827 32.7279 18.8412C32.1058 23.0298 31.5899 25.1454 30.8536 26.5275C30.216 27.7242 28.1076 30.9062 27.4557 31.6555C27.4207 31.6959 27.2235 31.9269 27.0175 32.1689C26.5718 32.6927 25.8808 33.3616 25.6832 33.4608C25.5684 33.5183 25.4457 33.4451 25.029 33.0703C24.6078 32.6916 24.1485 32.1878 23.0698 30.9221C22.8329 30.6442 21.9301 29.445 21.3421 28.6273C20.9567 28.0914 20.5822 27.6321 20.51 27.6068C20.3284 27.5432 20.0463 27.8569 19.1849 29.0802C18.7906 29.6403 18.2622 30.3499 18.0107 30.657C17.7592 30.9642 17.5273 31.2485 17.4954 31.2888C17.1851 31.6809 16.3992 32.464 16.0177 32.7611C15.162 33.4275 15.1048 33.4589 14.9126 33.366C14.4032 33.1197 12.5377 31.5609 11.7261 30.7033C11.0924 30.0337 10.3948 29.1243 9.78405 28.1717C9.37603 27.5354 8.83709 26.5539 8.83709 26.4472C8.83709 26.4232 8.76737 26.2638 8.68224 26.0931C8.5971 25.9224 8.40048 25.4209 8.24538 24.9786C7.35232 22.4322 7.09209 20.8286 7.01386 17.3904C6.96928 15.428 7.03129 14.5311 7.23208 14.2347C7.34116 14.0738 11.3772 14.0733 11.486 14.2342C11.5271 14.295 11.5386 14.9328 11.5123 15.7011C11.4242 18.2811 11.7372 21.5659 12.2152 23.0744C12.6226 24.3603 13.1922 25.5099 14.0609 26.799C15.4442 28.8521 16.0936 29.6386 16.4058 29.6386C16.77 29.6386 18.1904 28.115 19.0656 26.7856C19.5844 25.9976 19.6334 25.7124 19.3528 25.1158C18.8747 24.0992 18.5826 23.1071 18.1146 20.9108C17.828 19.5658 17.6183 16.2026 17.7488 15.0423C17.7959 14.6225 17.8721 14.2448 17.918 14.2028C18.0194 14.1102 22.1235 14.0962 22.2236 14.1882C22.2603 14.222 22.2795 15.1968 22.2659 16.3546C22.2395 18.6161 22.3057 19.5136 22.61 21.0208C22.8981 22.4473 23.2103 23.4308 23.8455 24.9115C24.0184 25.3145 24.7313 26.5769 25.0334 27.0151C25.1372 27.1656 25.2221 27.3062 25.2221 27.3275C25.2221 27.3488 25.4273 27.6509 25.6781 27.9986C26.1752 28.6879 26.7996 29.3037 27.0853 29.3865C27.388 29.4742 28.0176 28.754 28.6282 27.6217C29.3044 26.3679 29.3438 26.2798 29.6104 25.4214C29.8301 24.714 29.8381 24.6306 29.8344 23.0744C29.8308 21.5398 29.8185 21.4125 29.5822 20.4708C29.3362 19.4899 29.0006 18.4381 28.7984 18.0138C28.5365 17.4645 27.7176 15.1162 27.6729 14.7867Z" fill="#F8F8F8"/>
<path d="M54 32.241V12H70.9756V32.241H66.674V15.5855H58.3016V32.241H54Z" fill="black"/>
<path d="M75.6525 32.241V12H83.4186C85.247 12 86.7579 12.2795 87.9512 12.8386C89.1445 13.3783 90.0298 14.1494 90.6072 15.1518C91.1846 16.1349 91.4733 17.3012 91.4733 18.6506C91.4733 20 91.1846 21.1759 90.6072 22.1783C90.0298 23.1614 89.1445 23.9325 87.9512 24.4916C86.7579 25.0313 85.247 25.3012 83.4186 25.3012H79.9542V32.241H75.6525ZM79.9542 21.7157H82.9855C84.5253 21.7157 85.6031 21.4554 86.219 20.9349C86.8541 20.4145 87.1717 19.653 87.1717 18.6506C87.1717 17.6675 86.8541 16.9157 86.219 16.3952C85.6031 15.8554 84.5253 15.5855 82.9855 15.5855H79.9542V21.7157Z" fill="black"/>
<path d="M90.7725 32.241L98.2788 12H102.58L110.115 32.241H105.554L103.995 28.106H96.5177L94.9876 32.241H90.7725ZM97.8457 24.5205H102.696L100.271 17.494L97.8457 24.5205Z" fill="black"/>
<path d="M112.727 32.241V12H121.359C123.63 12 125.295 12.4819 126.354 13.4458C127.431 14.3904 127.97 15.7108 127.97 17.4072C127.97 18.4482 127.71 19.3446 127.191 20.0964C126.69 20.8289 126.007 21.359 125.141 21.6867C126.296 21.9566 127.2 22.506 127.855 23.3349C128.509 24.1446 128.836 25.2048 128.836 26.5157C128.836 27.6723 128.596 28.6843 128.115 29.5518C127.633 30.4 126.873 31.0651 125.834 31.547C124.795 32.0096 123.428 32.241 121.734 32.241H112.727ZM117.029 28.9446H120.955C122.302 28.9446 123.236 28.7133 123.755 28.2506C124.275 27.788 124.535 27.1036 124.535 26.1976C124.535 25.2916 124.275 24.588 123.755 24.0867C123.255 23.5663 122.312 23.306 120.926 23.306H117.029V28.9446ZM117.029 20.3566H120.493C121.667 20.3566 122.485 20.1253 122.947 19.6627C123.428 19.2 123.669 18.5735 123.669 17.7831C123.669 16.9735 123.438 16.3566 122.976 15.9325C122.514 15.5084 121.696 15.2964 120.522 15.2964H117.029V20.3566Z" fill="black"/>
<path d="M130.588 36V28.6554H132.84C133.129 27.9807 133.37 27.1711 133.562 26.2265C133.774 25.2819 133.937 24.2699 134.053 23.1904C134.168 22.1108 134.245 21.012 134.284 19.894C134.342 18.7566 134.37 17.6578 134.37 16.5976V12H148.574V28.6554H150.769V36H146.958V32.241H134.457V36H130.588ZM137.026 28.6554H144.273V15.5855H138.47V17.1759C138.47 19.8361 138.335 22.0819 138.066 23.9133C137.816 25.7253 137.469 27.306 137.026 28.6554Z" fill="black"/>
<path d="M152.657 32.241L160.163 12H164.465L172 32.241H167.439L165.88 28.106H158.402L156.872 32.241H152.657ZM159.73 24.5205H164.58L162.155 17.494L159.73 24.5205Z" fill="black"/>
</svg>
